<svg version="1.1" id="Layer_1" xmlns="http://www.w3.org/2000/svg" xmlns:xlink="http://www.w3.org/1999/xlink" x="0px" y="0px"
	 width="100%" viewBox="0 0 1024 1024" enable-background="new 0 0 1024 1024" xml:space="preserve">
<path fill="#ffffff" opacity="1.000000" stroke="none" 
	d="
M488.135681,559.000000 
	C488.132812,570.665833 488.288361,581.835205 488.045807,592.995789 
	C487.952057,597.309082 489.263458,598.842590 493.716187,598.760437 
	C507.044006,598.514343 520.379395,598.677429 533.711792,598.680725 
	C535.513000,598.681152 537.314209,598.680786 539.115417,598.680786 
	C539.426392,599.099426 539.737305,599.518005 540.048279,599.936646 
	C452.093018,719.760376 364.137787,839.584106 275.990753,959.669128 
	C274.335754,957.362793 275.511414,956.062683 276.039398,954.778137 
	C305.291077,883.614380 334.571686,812.462463 363.846619,741.308289 
	C367.775421,731.759094 371.399261,722.070374 375.709045,712.696655 
	C378.790924,705.993713 379.922760,699.231567 379.744080,691.925232 
	C379.442688,679.600159 379.771820,667.260681 379.596436,654.930725 
	C379.542694,651.152771 380.574066,648.401306 383.445068,645.781128 
	C393.533875,636.573608 403.675293,627.409241 413.039795,617.436279 
	C416.018860,614.263611 418.818024,610.974609 420.987335,607.194946 
	C434.920166,582.919128 448.480591,558.437683 461.604675,533.714111 
	C463.240479,530.632629 463.358002,527.286316 463.564667,524.000366 
	C464.003723,517.019714 464.244263,510.022156 464.375793,503.027985 
	C464.479034,497.540283 463.230499,496.584869 457.572205,496.300079 
	C444.096832,495.621765 430.623779,495.026672 417.125519,495.336670 
	C415.829163,495.366455 414.447418,495.534943 412.527863,493.923798 
	C440.568787,440.027252 468.711945,385.934265 496.855103,331.841278 
	C496.511383,331.609497 496.167694,331.377686 495.824005,331.145874 
	C490.920135,335.462616 487.373688,341.032166 483.283752,346.047607 
	C453.597748,382.451172 424.076508,418.989044 394.469482,455.457092 
	C389.439484,461.652649 387.207153,469.271790 383.591614,476.185638 
	C382.758698,477.778351 382.544067,479.723724 380.909790,480.947296 
	C378.901337,480.171967 379.715973,478.410614 379.714966,477.129211 
	C379.666473,415.466797 379.730255,353.804230 379.561676,292.142242 
	C379.547424,286.934692 381.987030,286.637970 385.976135,286.642914 
	C442.805481,286.713684 499.635101,286.642883 556.464172,286.789886 
	C561.088928,286.801849 564.116272,285.258881 567.143860,281.869049 
	C603.878479,240.739532 640.765381,199.746078 677.588989,158.695953 
	C705.288452,127.817169 732.954041,96.907982 760.633606,66.011299 
	C765.858398,60.179203 771.071106,54.336239 776.308350,48.515316 
	C776.955444,47.796032 777.577759,46.911549 778.895813,47.206165 
	C780.213440,49.206940 778.423889,50.584896 777.710815,52.062702 
	C748.828125,111.921478 719.888977,171.753021 690.984497,231.601303 
	C668.961792,277.200439 646.934082,322.797302 625.052185,368.463989 
	C623.272949,372.177246 621.088928,373.425964 617.037659,373.411530 
	C577.374207,373.270203 537.710083,373.319611 498.046143,373.324188 
	C490.958252,373.325012 490.986023,373.344940 490.988068,380.596771 
	C490.993439,399.428650 490.970337,418.260559 490.962097,437.092438 
	C490.958679,444.922455 490.962708,444.951080 498.649139,444.952026 
	C549.978943,444.958313 601.308716,444.950317 652.638489,444.949921 
	C660.333069,444.949890 660.340332,444.956940 660.340637,452.585938 
	C660.341370,470.751343 660.148987,488.919830 660.447876,507.080261 
	C660.533264,512.267090 658.812256,513.475769 653.882996,513.461060 
	C601.053772,513.302979 548.223877,513.363159 495.394196,513.367249 
	C488.133301,513.367859 488.114349,513.377502 488.111267,520.511475 
	C488.105774,533.174316 488.125793,545.837158 488.135681,559.000000 
z"/>
<path fill="#ffffff" opacity="1.000000" stroke="none" 
	d="
M275.311584,707.000000 
	C275.315979,722.497620 275.456451,737.497314 275.238190,752.491699 
	C275.174561,756.861267 276.173248,760.103271 279.880951,762.715454 
	C283.130585,765.004822 285.936493,767.923645 288.940674,770.561890 
	C290.350800,771.800232 291.796814,773.048218 290.783386,775.214417 
	C285.573090,786.351318 280.344788,797.479797 274.621002,809.680847 
	C229.520370,774.105164 194.062408,731.751648 169.179153,680.910522 
	C121.605247,583.708130 115.011086,483.264404 153.090332,382.211212 
	C231.976685,172.865784 444.748962,110.382225 585.032837,146.684036 
	C584.134827,151.307678 581.565369,155.262390 579.733521,159.477798 
	C576.880676,166.042709 573.566650,172.406128 570.657349,178.948059 
	C569.315063,181.966263 567.469055,182.506088 564.322632,181.987427 
	C499.242462,171.259827 435.943909,177.289871 374.898987,202.875748 
	C339.565979,217.684952 307.745697,238.163956 279.173737,263.702667 
	C276.510071,266.083557 275.167389,268.584137 275.221680,272.309753 
	C275.428101,286.471252 275.400665,300.638336 275.257538,314.801239 
	C275.222870,318.228485 276.196075,320.734467 278.689575,323.150726 
	C287.184723,331.382690 295.287659,340.024780 303.900330,348.127625 
	C307.588348,351.597351 309.096588,354.755798 306.282806,359.313049 
	C305.601257,360.416962 305.359741,361.792572 304.776917,363.434753 
	C309.536743,365.128571 308.457916,369.069916 308.454376,372.778351 
	C308.395081,434.601868 308.396088,496.425415 308.339233,558.248962 
	C308.336609,561.080383 309.591553,564.765930 304.805817,564.826843 
	C304.805817,565.591431 304.675354,566.003662 304.824738,566.236084 
	C309.647919,573.740845 306.843750,579.007751 300.640289,584.375916 
	C293.099487,590.901367 286.497162,598.499756 279.268402,605.403076 
	C276.395477,608.146667 275.212128,611.009033 275.231720,615.016663 
	C275.380463,645.510498 275.311798,676.005432 275.311584,707.000000 
M209.572937,352.536072 
	C206.632248,358.135162 203.436295,363.616516 200.790985,369.351837 
	C178.203964,418.323059 167.251938,469.628815 169.071030,523.706177 
	C169.835068,546.420044 172.750397,568.749023 177.848557,590.792725 
	C187.644089,633.147095 205.536255,671.918701 230.695099,707.340820 
	C235.445969,714.029724 239.982498,720.922791 246.382843,727.100159 
	C246.577957,725.730713 246.745102,725.103943 246.745438,724.477051 
	C246.764938,688.666260 246.746902,652.855408 246.823181,617.044800 
	C246.829178,614.227295 245.520248,612.394043 243.690811,610.577698 
	C234.708206,601.659180 226.098648,592.330200 216.696030,583.882263 
	C210.811218,578.594910 208.295074,573.599304 212.924042,566.496765 
	C213.150726,566.148987 213.004364,565.558044 213.061417,564.561340 
	C208.671005,564.807312 208.943680,561.699951 208.944809,558.754517 
	C208.968613,496.460419 208.992340,434.166351 209.009323,371.872253 
	C209.010269,368.378204 208.751266,364.787354 213.076965,363.816345 
	C212.549377,359.454620 209.230728,356.278625 210.528793,351.614899 
	C220.674484,341.525513 230.363876,330.913391 241.120331,321.523682 
	C248.766586,314.849030 246.347626,307.247772 246.045212,299.447998 
	C231.969879,315.674866 219.820618,333.049500 209.572937,352.536072 
M260.500000,548.851013 
	C269.325073,548.850830 278.156830,548.646729 286.972504,548.934387 
	C291.545532,549.083618 292.994598,547.536987 292.983185,542.949585 
	C292.853088,490.665771 292.847961,438.381348 292.988831,386.097626 
	C293.001404,381.424133 291.437988,380.138153 286.941467,380.184937 
	C268.294495,380.379059 249.642303,380.398010 230.996429,380.149963 
	C225.976273,380.083191 224.837341,382.069305 224.892685,386.640900 
	C225.102325,403.955536 225.015610,421.273956 225.011444,438.590942 
	C225.003220,472.725433 224.969147,506.859955 224.961990,540.994446 
	C224.960342,548.849243 224.990509,548.858337 233.024933,548.863586 
	C241.849960,548.869324 250.674973,548.856018 260.500000,548.851013 
z"/>
<path fill="#ffffff" opacity="1.000000" stroke="none" 
	d="
M880.330017,508.000519 
	C881.153137,560.288757 871.678772,610.140747 851.634399,657.878784 
	C835.844482,695.484070 814.534851,729.720947 787.535339,760.373047 
	C764.158325,786.912659 737.790039,809.984314 708.009827,829.079895 
	C671.077148,852.761719 631.272400,869.581360 588.438965,879.364624 
	C563.046692,885.164368 537.362671,888.274353 511.397125,888.925476 
	C489.067413,889.485413 466.851654,887.572205 444.796021,883.994324 
	C443.193054,883.734314 441.651184,883.097656 440.289276,882.697388 
	C439.450348,880.808777 440.279999,879.467468 440.898773,878.126404 
	C445.085968,869.051392 449.484375,860.067810 453.422119,850.886353 
	C455.211609,846.713867 457.808044,845.704834 462.028381,846.271973 
	C478.400177,848.472351 494.860199,849.107849 511.380676,848.955994 
	C551.281860,848.589233 589.731384,840.775574 626.839111,826.392090 
	C667.717407,810.547058 703.921265,787.198425 735.986755,757.334900 
	C738.799561,754.715271 739.941650,751.979126 739.837646,748.167236 
	C739.601440,739.507568 739.524170,730.828308 739.852905,722.174927 
	C740.021057,717.748291 738.477478,714.678223 735.391296,711.689941 
	C726.053833,702.648926 717.120422,693.185730 707.667542,684.270874 
	C703.476685,680.318481 701.498169,676.666382 705.039246,671.436951 
	C705.575073,670.645630 705.686157,669.566772 706.119568,668.233826 
	C702.093811,666.811768 702.022339,663.496460 702.024719,659.890686 
	C702.065186,598.061829 702.030212,536.232971 702.028137,474.404114 
	C702.028015,471.128784 701.342468,467.478546 705.733032,466.330780 
	C705.784180,465.830505 705.968079,465.406708 705.829102,465.192078 
	C700.685791,457.250610 704.648315,452.132080 710.633301,446.721863 
	C719.523438,438.685425 727.666443,429.826904 736.239258,421.432465 
	C738.651001,419.070892 739.831482,416.601776 739.823730,413.112396 
	C739.723206,367.782532 739.727966,322.452362 739.813904,277.122467 
	C739.820129,273.852783 738.837708,271.498199 736.497925,269.233002 
	C728.326599,261.322174 729.138306,264.251709 733.789490,253.949234 
	C737.285278,246.206070 740.917175,238.524277 744.504150,230.822433 
	C745.127441,229.484344 745.579407,228.016525 747.744507,226.492203 
	C789.074768,261.551849 821.588379,303.508606 844.749634,352.633850 
	C867.848145,401.626160 879.687256,453.301147 880.330017,508.000519 
M801.382996,661.263245 
	C801.896973,664.508057 800.763916,666.968811 797.752380,668.227417 
	C798.296509,670.179871 798.525391,671.850037 800.666870,673.331848 
	C835.510254,607.306213 848.246582,537.597473 837.551331,463.886108 
	C829.042175,405.241119 806.238708,352.591248 769.499634,305.674805 
	C767.867859,307.573547 768.345215,309.135864 768.343872,310.558502 
	C768.310608,346.381317 768.337402,382.204193 768.269104,418.026917 
	C768.263611,420.903137 769.101318,423.022736 771.187744,425.063812 
	C780.236816,433.916290 789.062988,442.996735 798.121277,451.839569 
	C800.729126,454.385376 801.694397,456.693298 799.825439,460.138153 
	C798.857849,461.921753 796.911743,464.998413 798.497925,466.046661 
	C803.047546,469.053436 801.288513,473.226898 801.295349,476.879089 
	C801.409851,538.027527 801.380310,599.176270 801.382996,661.263245 
M717.999634,605.500000 
	C717.984863,618.659546 718.099548,631.821228 717.883240,644.977478 
	C717.810181,649.424377 719.146790,651.187378 723.844238,651.133423 
	C742.498291,650.919495 761.157593,650.903137 779.811462,651.117676 
	C784.659912,651.173462 786.055237,649.499817 786.043884,644.762573 
	C785.919983,592.958069 785.986877,541.153076 785.987427,489.348267 
	C785.987488,483.371643 785.570740,482.987579 779.336182,482.984497 
	C761.179504,482.975494 743.022888,482.982849 724.866211,482.994171 
	C718.097046,482.998383 717.973816,483.098907 717.973450,490.063019 
	C717.971191,528.208679 717.989014,566.354370 717.999634,605.500000 
M770.685669,718.728149 
	C777.641479,709.720154 784.395264,700.576477 789.913086,690.583435 
	C783.611389,696.344604 777.646179,702.348572 771.703308,708.374573 
	C770.774475,709.316467 769.770874,710.254578 769.108887,711.375793 
	C767.472046,714.148010 768.148071,718.246826 770.685669,718.728149 
z"/>
<path fill="#ffffff" opacity="1.000000" stroke="none" 
	d="
M379.694946,604.705383 
	C381.441376,586.767883 382.071228,569.162842 384.474030,551.703186 
	C385.060150,547.444275 386.977020,546.731934 390.674957,546.571594 
	C397.173950,546.289795 403.537323,547.784058 411.223083,547.509949 
	C401.121124,568.496826 391.273254,588.955811 381.352966,609.565186 
	C379.063751,608.139343 379.952301,606.481934 379.694946,604.705383 
z"/>
<path fill="#ffffff" opacity="1.000000" stroke="none" 
	d="
M261.013489,515.262146 
	C262.575287,500.907043 263.976837,486.993073 265.631348,473.109314 
	C266.034729,469.724365 267.268707,466.438385 268.315308,462.346466 
	C260.099701,462.346466 252.329208,462.365295 244.558838,462.341125 
	C237.031708,462.317688 231.993164,455.253021 234.516006,448.220215 
	C241.769531,427.999756 249.053497,407.790161 256.334015,387.579407 
	C256.769501,386.370514 256.913727,384.957733 259.182098,383.846619 
	C255.743530,404.965820 252.407532,425.455048 248.924774,446.845612 
	C255.918442,446.845612 262.507233,446.832977 269.095978,446.848724 
	C278.170074,446.870392 283.032196,453.091400 280.743286,461.735626 
	C274.353973,485.865295 267.963501,509.994659 261.565399,534.122009 
	C261.116577,535.814514 261.156860,537.752502 258.601898,539.417419 
	C259.426849,531.076599 260.186584,523.395508 261.013489,515.262146 
z"/>
<path fill="#ffffff" opacity="1.000000" stroke="none" 
	d="
M762.777954,611.621155 
	C759.981934,621.998962 757.314331,631.986389 754.646667,641.973755 
	C754.025635,641.855469 753.404602,641.737183 752.783508,641.618896 
	C756.625122,616.360718 756.542480,590.658386 762.333679,565.392639 
	C761.069214,563.770630 759.148193,564.637756 757.409790,564.652161 
	C750.747803,564.707336 744.082336,564.950745 737.425232,564.805176 
	C732.156189,564.690002 726.699829,557.142090 728.402100,552.351379 
	C735.760132,531.643677 743.245056,510.981049 750.689636,490.304077 
	C751.021545,489.382233 751.288330,488.387573 753.378174,487.720398 
	C749.978516,508.458099 746.655273,528.730103 743.225708,549.650513 
	C750.752869,549.650513 758.192383,549.614929 765.631348,549.661133 
	C772.250916,549.702271 777.234924,556.007996 775.589050,562.443726 
	C771.425842,578.722534 767.141846,594.970520 762.777954,611.621155 
z"/>
</svg>